<?xml version="1.0" encoding="utf-8" standalone="yes"?>
<!DOCTYPE svg PUBLIC "-//W3C//DTD SVG 1.1//EN" "http://www.w3.org/Graphics/SVG/1.1/DTD/svg11.dtd">
<svg xmlns:xlink="http://www.w3.org/1999/xlink" class="barcode-canvas" version="1.1" style="shape-rendering:crispEdges;" xmlns="http://www.w3.org/2000/svg">
  <g text-rendering="geometricPrecision">
    <rect x="0" y="0" width="55" height="68" fill="#ffffff" />
    <rect x="7" y="7" width="14" height="2" fill="#000000" />
    <rect x="27" y="7" width="2" height="2" fill="#000000" />
    <rect x="31" y="7" width="2" height="2" fill="#000000" />
    <rect x="35" y="7" width="14" height="2" fill="#000000" />
    <rect x="7" y="9" width="2" height="2" fill="#000000" />
    <rect x="19" y="9" width="2" height="2" fill="#000000" />
    <rect x="31" y="9" width="2" height="2" fill="#000000" />
    <rect x="35" y="9" width="2" height="2" fill="#000000" />
    <rect x="47" y="9" width="2" height="2" fill="#000000" />
    <rect x="7" y="11" width="2" height="2" fill="#000000" />
    <rect x="11" y="11" width="6" height="2" fill="#000000" />
    <rect x="19" y="11" width="2" height="2" fill="#000000" />
    <rect x="23" y="11" width="2" height="2" fill="#000000" />
    <rect x="27" y="11" width="2" height="2" fill="#000000" />
    <rect x="35" y="11" width="2" height="2" fill="#000000" />
    <rect x="39" y="11" width="6" height="2" fill="#000000" />
    <rect x="47" y="11" width="2" height="2" fill="#000000" />
    <rect x="7" y="13" width="2" height="2" fill="#000000" />
    <rect x="11" y="13" width="6" height="2" fill="#000000" />
    <rect x="19" y="13" width="2" height="2" fill="#000000" />
    <rect x="31" y="13" width="2" height="2" fill="#000000" />
    <rect x="35" y="13" width="2" height="2" fill="#000000" />
    <rect x="39" y="13" width="6" height="2" fill="#000000" />
    <rect x="47" y="13" width="2" height="2" fill="#000000" />
    <rect x="7" y="15" width="2" height="2" fill="#000000" />
    <rect x="11" y="15" width="6" height="2" fill="#000000" />
    <rect x="19" y="15" width="2" height="2" fill="#000000" />
    <rect x="25" y="15" width="2" height="2" fill="#000000" />
    <rect x="29" y="15" width="4" height="2" fill="#000000" />
    <rect x="35" y="15" width="2" height="2" fill="#000000" />
    <rect x="39" y="15" width="6" height="2" fill="#000000" />
    <rect x="47" y="15" width="2" height="2" fill="#000000" />
    <rect x="7" y="17" width="2" height="2" fill="#000000" />
    <rect x="19" y="17" width="2" height="2" fill="#000000" />
    <rect x="25" y="17" width="6" height="2" fill="#000000" />
    <rect x="35" y="17" width="2" height="2" fill="#000000" />
    <rect x="47" y="17" width="2" height="2" fill="#000000" />
    <rect x="7" y="19" width="14" height="2" fill="#000000" />
    <rect x="23" y="19" width="2" height="2" fill="#000000" />
    <rect x="27" y="19" width="2" height="2" fill="#000000" />
    <rect x="31" y="19" width="2" height="2" fill="#000000" />
    <rect x="35" y="19" width="14" height="2" fill="#000000" />
    <rect x="23" y="21" width="2" height="2" fill="#000000" />
    <rect x="27" y="21" width="2" height="2" fill="#000000" />
    <rect x="7" y="23" width="6" height="2" fill="#000000" />
    <rect x="15" y="23" width="10" height="2" fill="#000000" />
    <rect x="27" y="23" width="2" height="2" fill="#000000" />
    <rect x="31" y="23" width="6" height="2" fill="#000000" />
    <rect x="43" y="23" width="2" height="2" fill="#000000" />
    <rect x="11" y="25" width="2" height="2" fill="#000000" />
    <rect x="15" y="25" width="2" height="2" fill="#000000" />
    <rect x="23" y="25" width="2" height="2" fill="#000000" />
    <rect x="27" y="25" width="4" height="2" fill="#000000" />
    <rect x="33" y="25" width="2" height="2" fill="#000000" />
    <rect x="37" y="25" width="2" height="2" fill="#000000" />
    <rect x="41" y="25" width="2" height="2" fill="#000000" />
    <rect x="47" y="25" width="2" height="2" fill="#000000" />
    <rect x="11" y="27" width="2" height="2" fill="#000000" />
    <rect x="15" y="27" width="2" height="2" fill="#000000" />
    <rect x="19" y="27" width="4" height="2" fill="#000000" />
    <rect x="25" y="27" width="2" height="2" fill="#000000" />
    <rect x="29" y="27" width="2" height="2" fill="#000000" />
    <rect x="33" y="27" width="6" height="2" fill="#000000" />
    <rect x="41" y="27" width="2" height="2" fill="#000000" />
    <rect x="45" y="27" width="4" height="2" fill="#000000" />
    <rect x="13" y="29" width="2" height="2" fill="#000000" />
    <rect x="17" y="29" width="2" height="2" fill="#000000" />
    <rect x="23" y="29" width="2" height="2" fill="#000000" />
    <rect x="29" y="29" width="6" height="2" fill="#000000" />
    <rect x="37" y="29" width="4" height="2" fill="#000000" />
    <rect x="15" y="31" width="8" height="2" fill="#000000" />
    <rect x="27" y="31" width="4" height="2" fill="#000000" />
    <rect x="33" y="31" width="6" height="2" fill="#000000" />
    <rect x="41" y="31" width="2" height="2" fill="#000000" />
    <rect x="47" y="31" width="2" height="2" fill="#000000" />
    <rect x="23" y="33" width="2" height="2" fill="#000000" />
    <rect x="27" y="33" width="2" height="2" fill="#000000" />
    <rect x="35" y="33" width="4" height="2" fill="#000000" />
    <rect x="41" y="33" width="2" height="2" fill="#000000" />
    <rect x="45" y="33" width="2" height="2" fill="#000000" />
    <rect x="7" y="35" width="14" height="2" fill="#000000" />
    <rect x="23" y="35" width="6" height="2" fill="#000000" />
    <rect x="31" y="35" width="2" height="2" fill="#000000" />
    <rect x="39" y="35" width="2" height="2" fill="#000000" />
    <rect x="43" y="35" width="6" height="2" fill="#000000" />
    <rect x="7" y="37" width="2" height="2" fill="#000000" />
    <rect x="19" y="37" width="2" height="2" fill="#000000" />
    <rect x="23" y="37" width="6" height="2" fill="#000000" />
    <rect x="35" y="37" width="2" height="2" fill="#000000" />
    <rect x="45" y="37" width="4" height="2" fill="#000000" />
    <rect x="7" y="39" width="2" height="2" fill="#000000" />
    <rect x="11" y="39" width="6" height="2" fill="#000000" />
    <rect x="19" y="39" width="2" height="2" fill="#000000" />
    <rect x="23" y="39" width="2" height="2" fill="#000000" />
    <rect x="27" y="39" width="2" height="2" fill="#000000" />
    <rect x="31" y="39" width="2" height="2" fill="#000000" />
    <rect x="35" y="39" width="6" height="2" fill="#000000" />
    <rect x="45" y="39" width="4" height="2" fill="#000000" />
    <rect x="7" y="41" width="2" height="2" fill="#000000" />
    <rect x="11" y="41" width="6" height="2" fill="#000000" />
    <rect x="19" y="41" width="2" height="2" fill="#000000" />
    <rect x="29" y="41" width="2" height="2" fill="#000000" />
    <rect x="33" y="41" width="2" height="2" fill="#000000" />
    <rect x="37" y="41" width="4" height="2" fill="#000000" />
    <rect x="43" y="41" width="4" height="2" fill="#000000" />
    <rect x="7" y="43" width="2" height="2" fill="#000000" />
    <rect x="11" y="43" width="6" height="2" fill="#000000" />
    <rect x="19" y="43" width="2" height="2" fill="#000000" />
    <rect x="23" y="43" width="2" height="2" fill="#000000" />
    <rect x="27" y="43" width="4" height="2" fill="#000000" />
    <rect x="33" y="43" width="10" height="2" fill="#000000" />
    <rect x="47" y="43" width="2" height="2" fill="#000000" />
    <rect x="7" y="45" width="2" height="2" fill="#000000" />
    <rect x="19" y="45" width="2" height="2" fill="#000000" />
    <rect x="23" y="45" width="12" height="2" fill="#000000" />
    <rect x="39" y="45" width="2" height="2" fill="#000000" />
    <rect x="45" y="45" width="2" height="2" fill="#000000" />
    <rect x="7" y="47" width="14" height="2" fill="#000000" />
    <rect x="23" y="47" width="8" height="2" fill="#000000" />
    <rect x="33" y="47" width="4" height="2" fill="#000000" />
    <rect x="39" y="47" width="4" height="2" fill="#000000" />
    <rect x="45" y="47" width="4" height="2" fill="#000000" />
    <g transform="translate(12, 52)">
      <path d="M 1.32 7.242 L 3.52 1.516 L 4.336 1.516 L 6.68 7.242 L 5.816 7.242 L 5.148 5.508 L 2.754 5.508 L 2.125 7.242 Z M 2.973 4.891 L 4.914 4.891 L 4.316 3.305 C 4.134 2.823 3.999 2.427 3.91 2.117 C 3.837 2.484 3.734 2.849 3.602 3.211 Z M 7.074 6.004 L 7.77 5.895 C 7.809 6.173 7.917 6.387 8.096 6.535 C 8.274 6.684 8.523 6.758 8.844 6.758 C 9.167 6.758 9.406 6.692 9.562 6.561 C 9.719 6.429 9.797 6.275 9.797 6.098 C 9.797 5.939 9.728 5.814 9.59 5.723 C 9.493 5.66 9.254 5.581 8.871 5.484 C 8.355 5.354 7.998 5.242 7.799 5.146 C 7.6 5.051 7.449 4.92 7.346 4.752 C 7.243 4.584 7.191 4.398 7.191 4.195 C 7.191 4.01 7.234 3.839 7.318 3.682 C 7.403 3.524 7.518 3.393 7.664 3.289 C 7.773 3.208 7.923 3.14 8.111 3.084 C 8.3 3.028 8.503 3 8.719 3 C 9.044 3 9.33 3.047 9.576 3.141 C 9.822 3.234 10.004 3.361 10.121 3.521 C 10.238 3.682 10.319 3.896 10.363 4.164 L 9.676 4.258 C 9.645 4.044 9.554 3.878 9.404 3.758 C 9.255 3.638 9.043 3.578 8.77 3.578 C 8.447 3.578 8.216 3.632 8.078 3.738 C 7.94 3.845 7.871 3.97 7.871 4.113 C 7.871 4.204 7.9 4.286 7.957 4.359 C 8.014 4.435 8.104 4.497 8.227 4.547 C 8.297 4.573 8.504 4.633 8.848 4.727 C 9.345 4.859 9.692 4.968 9.889 5.053 C 10.085 5.137 10.24 5.26 10.352 5.422 C 10.464 5.583 10.52 5.784 10.52 6.023 C 10.52 6.258 10.451 6.479 10.314 6.686 C 10.178 6.893 9.98 7.053 9.723 7.166 C 9.465 7.279 9.173 7.336 8.848 7.336 C 8.309 7.336 7.898 7.224 7.615 7 C 7.333 6.776 7.152 6.444 7.074 6.004 Z M 11.477 8.832 L 11.477 3.094 L 12.117 3.094 L 12.117 3.633 C 12.268 3.422 12.439 3.264 12.629 3.158 C 12.819 3.053 13.049 3 13.32 3 C 13.674 3 13.987 3.091 14.258 3.273 C 14.529 3.456 14.733 3.713 14.871 4.045 C 15.009 4.377 15.078 4.741 15.078 5.137 C 15.078 5.561 15.002 5.943 14.85 6.283 C 14.697 6.623 14.476 6.883 14.186 7.064 C 13.895 7.245 13.59 7.336 13.27 7.336 C 13.035 7.336 12.825 7.286 12.639 7.188 C 12.452 7.089 12.299 6.964 12.18 6.812 L 12.18 8.832 Z M 12.113 5.191 C 12.113 5.725 12.221 6.12 12.438 6.375 C 12.654 6.63 12.915 6.758 13.223 6.758 C 13.535 6.758 13.803 6.626 14.025 6.361 C 14.248 6.097 14.359 5.688 14.359 5.133 C 14.359 4.604 14.251 4.208 14.033 3.945 C 13.816 3.682 13.556 3.551 13.254 3.551 C 12.954 3.551 12.689 3.691 12.459 3.971 C 12.229 4.251 12.113 4.658 12.113 5.191 Z M 15.797 5.168 C 15.797 4.4 16.01 3.831 16.438 3.461 C 16.794 3.154 17.229 3 17.742 3 C 18.312 3 18.779 3.187 19.141 3.561 C 19.503 3.934 19.684 4.451 19.684 5.109 C 19.684 5.643 19.604 6.063 19.443 6.369 C 19.283 6.675 19.05 6.913 18.744 7.082 C 18.438 7.251 18.104 7.336 17.742 7.336 C 17.161 7.336 16.692 7.15 16.334 6.777 C 15.976 6.405 15.797 5.868 15.797 5.168 Z M 16.52 5.168 C 16.52 5.699 16.635 6.097 16.867 6.361 C 17.099 6.626 17.391 6.758 17.742 6.758 C 18.091 6.758 18.382 6.625 18.613 6.359 C 18.845 6.094 18.961 5.689 18.961 5.145 C 18.961 4.632 18.844 4.243 18.611 3.979 C 18.378 3.714 18.089 3.582 17.742 3.582 C 17.391 3.582 17.099 3.714 16.867 3.977 C 16.635 4.24 16.52 4.637 16.52 5.168 Z M 20.359 6.004 L 21.055 5.895 C 21.094 6.173 21.202 6.387 21.381 6.535 C 21.559 6.684 21.809 6.758 22.129 6.758 C 22.452 6.758 22.691 6.692 22.848 6.561 C 23.004 6.429 23.082 6.275 23.082 6.098 C 23.082 5.939 23.013 5.814 22.875 5.723 C 22.779 5.66 22.539 5.581 22.156 5.484 C 21.641 5.354 21.283 5.242 21.084 5.146 C 20.885 5.051 20.734 4.92 20.631 4.752 C 20.528 4.584 20.477 4.398 20.477 4.195 C 20.477 4.01 20.519 3.839 20.604 3.682 C 20.688 3.524 20.803 3.393 20.949 3.289 C 21.059 3.208 21.208 3.14 21.396 3.084 C 21.585 3.028 21.788 3 22.004 3 C 22.329 3 22.615 3.047 22.861 3.141 C 23.107 3.234 23.289 3.361 23.406 3.521 C 23.523 3.682 23.604 3.896 23.648 4.164 L 22.961 4.258 C 22.93 4.044 22.839 3.878 22.689 3.758 C 22.54 3.638 22.328 3.578 22.055 3.578 C 21.732 3.578 21.501 3.632 21.363 3.738 C 21.225 3.845 21.156 3.97 21.156 4.113 C 21.156 4.204 21.185 4.286 21.242 4.359 C 21.299 4.435 21.389 4.497 21.512 4.547 C 21.582 4.573 21.789 4.633 22.133 4.727 C 22.63 4.859 22.977 4.968 23.174 5.053 C 23.37 5.137 23.525 5.26 23.637 5.422 C 23.749 5.583 23.805 5.784 23.805 6.023 C 23.805 6.258 23.736 6.479 23.6 6.686 C 23.463 6.893 23.266 7.053 23.008 7.166 C 22.75 7.279 22.458 7.336 22.133 7.336 C 21.594 7.336 21.183 7.224 20.9 7 C 20.618 6.776 20.438 6.444 20.359 6.004 Z M 27.602 5.906 L 28.328 5.996 C 28.214 6.421 28.001 6.75 27.691 6.984 C 27.382 7.219 26.986 7.336 26.504 7.336 C 25.897 7.336 25.416 7.149 25.061 6.775 C 24.705 6.402 24.527 5.878 24.527 5.203 C 24.527 4.505 24.707 3.964 25.066 3.578 C 25.426 3.193 25.892 3 26.465 3 C 27.02 3 27.473 3.189 27.824 3.566 C 28.176 3.944 28.352 4.475 28.352 5.16 C 28.352 5.202 28.35 5.264 28.348 5.348 L 25.254 5.348 C 25.28 5.803 25.409 6.152 25.641 6.395 C 25.872 6.637 26.161 6.758 26.508 6.758 C 26.766 6.758 26.986 6.69 27.168 6.555 C 27.35 6.419 27.495 6.203 27.602 5.906 Z M 25.293 4.77 L 27.609 4.77 C 27.578 4.421 27.49 4.159 27.344 3.984 C 27.12 3.714 26.829 3.578 26.473 3.578 C 26.15 3.578 25.878 3.686 25.658 3.902 C 25.438 4.118 25.316 4.408 25.293 4.77 Z " fill="#000000" shape-rendering="geometricPrecision" />
    </g>
  </g>
</svg>